<mxfile host="Electron" modified="2024-05-25T14:54:55.502Z" agent="Mozilla/5.0 (Windows NT 10.0; Win64; x64) AppleWebKit/537.36 (KHTML, like Gecko) draw.io/22.1.11 Chrome/114.0.5735.289 Electron/25.9.8 Safari/537.36" etag="yLB_YPLSqNVhxBz1qIXQ" version="22.1.11" type="device">
  <diagram name="第 1 页" id="m0sLymPHQfHIEUEQ-InO">
    <mxGraphModel dx="1562" dy="1037" grid="1" gridSize="10" guides="1" tooltips="1" connect="1" arrows="1" fold="1" page="1" pageScale="1" pageWidth="827" pageHeight="1169" math="0" shadow="0">
      <root>
        <mxCell id="0" />
        <mxCell id="1" parent="0" />
        <mxCell id="BMEiT2I3XLS4XOjlkgCR-121" value="" style="rounded=1;whiteSpace=wrap;html=1;dashed=1;fillColor=none;" vertex="1" parent="1">
          <mxGeometry x="970.5" y="980" width="559" height="360" as="geometry" />
        </mxCell>
        <mxCell id="BMEiT2I3XLS4XOjlkgCR-100" value="" style="rounded=1;whiteSpace=wrap;html=1;dashed=1;fillColor=none;" vertex="1" parent="1">
          <mxGeometry x="950" y="1412" width="610" height="540" as="geometry" />
        </mxCell>
        <mxCell id="BMEiT2I3XLS4XOjlkgCR-46" style="edgeStyle=orthogonalEdgeStyle;orthogonalLoop=1;jettySize=auto;html=1;entryX=0;entryY=0.5;entryDx=0;entryDy=0;curved=1;" edge="1" parent="1" source="BMEiT2I3XLS4XOjlkgCR-39" target="BMEiT2I3XLS4XOjlkgCR-43">
          <mxGeometry relative="1" as="geometry" />
        </mxCell>
        <mxCell id="BMEiT2I3XLS4XOjlkgCR-61" style="edgeStyle=orthogonalEdgeStyle;orthogonalLoop=1;jettySize=auto;html=1;entryX=0;entryY=0.5;entryDx=0;entryDy=0;curved=1;" edge="1" parent="1" source="BMEiT2I3XLS4XOjlkgCR-39" target="BMEiT2I3XLS4XOjlkgCR-57">
          <mxGeometry relative="1" as="geometry">
            <Array as="points">
              <mxPoint x="973.5" y="1472" />
              <mxPoint x="973.5" y="1772" />
            </Array>
          </mxGeometry>
        </mxCell>
        <mxCell id="BMEiT2I3XLS4XOjlkgCR-39" value="&lt;font face=&quot;Comic Sans MS&quot;&gt;x [B, N, I]&lt;/font&gt;" style="rounded=1;whiteSpace=wrap;html=1;fillColor=#dae8fc;strokeColor=#6c8ebf;" vertex="1" parent="1">
          <mxGeometry x="983.5" y="1442" width="180" height="40" as="geometry" />
        </mxCell>
        <mxCell id="BMEiT2I3XLS4XOjlkgCR-45" style="edgeStyle=orthogonalEdgeStyle;orthogonalLoop=1;jettySize=auto;html=1;entryX=1;entryY=0.5;entryDx=0;entryDy=0;curved=1;exitX=0.5;exitY=1;exitDx=0;exitDy=0;" edge="1" parent="1" source="BMEiT2I3XLS4XOjlkgCR-41" target="BMEiT2I3XLS4XOjlkgCR-43">
          <mxGeometry relative="1" as="geometry" />
        </mxCell>
        <mxCell id="BMEiT2I3XLS4XOjlkgCR-69" style="edgeStyle=orthogonalEdgeStyle;orthogonalLoop=1;jettySize=auto;html=1;entryX=1;entryY=0.5;entryDx=0;entryDy=0;curved=1;exitX=1;exitY=0.5;exitDx=0;exitDy=0;" edge="1" parent="1" source="BMEiT2I3XLS4XOjlkgCR-41" target="BMEiT2I3XLS4XOjlkgCR-53">
          <mxGeometry relative="1" as="geometry" />
        </mxCell>
        <mxCell id="BMEiT2I3XLS4XOjlkgCR-41" value="&lt;font face=&quot;Comic Sans MS&quot;&gt;state [B, N, O]&lt;/font&gt;" style="rounded=1;whiteSpace=wrap;html=1;fillColor=#dae8fc;strokeColor=#6c8ebf;" vertex="1" parent="1">
          <mxGeometry x="1183.5" y="1442" width="180" height="40" as="geometry" />
        </mxCell>
        <mxCell id="BMEiT2I3XLS4XOjlkgCR-56" style="edgeStyle=orthogonalEdgeStyle;orthogonalLoop=1;jettySize=auto;html=1;entryX=1;entryY=0.5;entryDx=0;entryDy=0;curved=1;exitX=0.5;exitY=1;exitDx=0;exitDy=0;" edge="1" parent="1" source="BMEiT2I3XLS4XOjlkgCR-42" target="BMEiT2I3XLS4XOjlkgCR-47">
          <mxGeometry relative="1" as="geometry" />
        </mxCell>
        <mxCell id="BMEiT2I3XLS4XOjlkgCR-65" style="edgeStyle=orthogonalEdgeStyle;orthogonalLoop=1;jettySize=auto;html=1;entryX=1;entryY=0.5;entryDx=0;entryDy=0;curved=1;" edge="1" parent="1" source="BMEiT2I3XLS4XOjlkgCR-42" target="BMEiT2I3XLS4XOjlkgCR-62">
          <mxGeometry relative="1" as="geometry">
            <Array as="points">
              <mxPoint x="1458.5" y="1842" />
            </Array>
          </mxGeometry>
        </mxCell>
        <mxCell id="BMEiT2I3XLS4XOjlkgCR-42" value="&lt;font face=&quot;Comic Sans MS&quot;&gt;node_embedding [N, D]&lt;/font&gt;" style="rounded=1;whiteSpace=wrap;html=1;fillColor=#dae8fc;strokeColor=#6c8ebf;" vertex="1" parent="1">
          <mxGeometry x="1383.5" y="1442" width="150" height="40" as="geometry" />
        </mxCell>
        <mxCell id="BMEiT2I3XLS4XOjlkgCR-48" style="edgeStyle=orthogonalEdgeStyle;rounded=0;orthogonalLoop=1;jettySize=auto;html=1;entryX=0.5;entryY=0;entryDx=0;entryDy=0;" edge="1" parent="1" source="BMEiT2I3XLS4XOjlkgCR-43" target="BMEiT2I3XLS4XOjlkgCR-47">
          <mxGeometry relative="1" as="geometry" />
        </mxCell>
        <mxCell id="BMEiT2I3XLS4XOjlkgCR-43" value="cat (-1)" style="ellipse;whiteSpace=wrap;html=1;aspect=fixed;fillColor=#f8cecc;strokeColor=#b85450;fontFamily=Comic Sans MS;" vertex="1" parent="1">
          <mxGeometry x="1148.5" y="1502" width="50" height="50" as="geometry" />
        </mxCell>
        <mxCell id="BMEiT2I3XLS4XOjlkgCR-54" style="edgeStyle=orthogonalEdgeStyle;orthogonalLoop=1;jettySize=auto;html=1;entryX=0.5;entryY=0;entryDx=0;entryDy=0;curved=1;" edge="1" parent="1" source="BMEiT2I3XLS4XOjlkgCR-47" target="BMEiT2I3XLS4XOjlkgCR-52">
          <mxGeometry relative="1" as="geometry" />
        </mxCell>
        <mxCell id="BMEiT2I3XLS4XOjlkgCR-55" style="edgeStyle=orthogonalEdgeStyle;orthogonalLoop=1;jettySize=auto;html=1;entryX=0.5;entryY=0;entryDx=0;entryDy=0;curved=1;" edge="1" parent="1" source="BMEiT2I3XLS4XOjlkgCR-47" target="BMEiT2I3XLS4XOjlkgCR-53">
          <mxGeometry relative="1" as="geometry" />
        </mxCell>
        <mxCell id="BMEiT2I3XLS4XOjlkgCR-47" value="&lt;font face=&quot;Comic Sans MS&quot;&gt;gate (AVWGCN)&lt;/font&gt;" style="rounded=1;whiteSpace=wrap;html=1;fillColor=#ffff88;strokeColor=#36393d;" vertex="1" parent="1">
          <mxGeometry x="1083.5" y="1582" width="180" height="40" as="geometry" />
        </mxCell>
        <mxCell id="BMEiT2I3XLS4XOjlkgCR-60" style="edgeStyle=orthogonalEdgeStyle;orthogonalLoop=1;jettySize=auto;html=1;curved=1;" edge="1" parent="1" source="BMEiT2I3XLS4XOjlkgCR-52" target="BMEiT2I3XLS4XOjlkgCR-57">
          <mxGeometry relative="1" as="geometry" />
        </mxCell>
        <mxCell id="BMEiT2I3XLS4XOjlkgCR-52" value="&lt;font face=&quot;Comic Sans MS&quot;&gt;z&lt;/font&gt;" style="rounded=1;whiteSpace=wrap;html=1;fillColor=#dae8fc;strokeColor=#6c8ebf;" vertex="1" parent="1">
          <mxGeometry x="1053.5" y="1663" width="93" height="40" as="geometry" />
        </mxCell>
        <mxCell id="BMEiT2I3XLS4XOjlkgCR-70" style="edgeStyle=orthogonalEdgeStyle;orthogonalLoop=1;jettySize=auto;html=1;entryX=1;entryY=0.5;entryDx=0;entryDy=0;curved=1;exitX=0.5;exitY=1;exitDx=0;exitDy=0;" edge="1" parent="1" source="BMEiT2I3XLS4XOjlkgCR-53" target="BMEiT2I3XLS4XOjlkgCR-62">
          <mxGeometry relative="1" as="geometry">
            <Array as="points">
              <mxPoint x="1245.5" y="1752" />
              <mxPoint x="1303.5" y="1752" />
              <mxPoint x="1303.5" y="1842" />
            </Array>
          </mxGeometry>
        </mxCell>
        <mxCell id="BMEiT2I3XLS4XOjlkgCR-53" value="&lt;font face=&quot;Comic Sans MS&quot;&gt;r&lt;/font&gt;" style="rounded=1;whiteSpace=wrap;html=1;fillColor=#dae8fc;strokeColor=#6c8ebf;" vertex="1" parent="1">
          <mxGeometry x="1198.5" y="1663" width="93" height="40" as="geometry" />
        </mxCell>
        <mxCell id="BMEiT2I3XLS4XOjlkgCR-63" style="edgeStyle=orthogonalEdgeStyle;rounded=0;orthogonalLoop=1;jettySize=auto;html=1;entryX=0.5;entryY=0;entryDx=0;entryDy=0;" edge="1" parent="1" source="BMEiT2I3XLS4XOjlkgCR-57" target="BMEiT2I3XLS4XOjlkgCR-62">
          <mxGeometry relative="1" as="geometry" />
        </mxCell>
        <mxCell id="BMEiT2I3XLS4XOjlkgCR-57" value="&lt;font face=&quot;Comic Sans MS&quot;&gt;candidate&lt;/font&gt;" style="rounded=1;whiteSpace=wrap;html=1;fillColor=#dae8fc;strokeColor=#6c8ebf;" vertex="1" parent="1">
          <mxGeometry x="1103.5" y="1752" width="140" height="40" as="geometry" />
        </mxCell>
        <mxCell id="BMEiT2I3XLS4XOjlkgCR-72" style="edgeStyle=orthogonalEdgeStyle;rounded=0;orthogonalLoop=1;jettySize=auto;html=1;entryX=0.5;entryY=0;entryDx=0;entryDy=0;" edge="1" parent="1" source="BMEiT2I3XLS4XOjlkgCR-62" target="BMEiT2I3XLS4XOjlkgCR-67">
          <mxGeometry relative="1" as="geometry" />
        </mxCell>
        <mxCell id="BMEiT2I3XLS4XOjlkgCR-62" value="&lt;font face=&quot;Comic Sans MS&quot;&gt;update (AVWGCN)&lt;/font&gt;" style="rounded=1;whiteSpace=wrap;html=1;fillColor=#ffff88;strokeColor=#36393d;" vertex="1" parent="1">
          <mxGeometry x="1083.5" y="1822" width="180" height="40" as="geometry" />
        </mxCell>
        <mxCell id="BMEiT2I3XLS4XOjlkgCR-67" value="&lt;font face=&quot;Comic Sans MS&quot;&gt;h [B, N, O]&lt;/font&gt;" style="rounded=1;whiteSpace=wrap;html=1;fillColor=#dae8fc;strokeColor=#6c8ebf;" vertex="1" parent="1">
          <mxGeometry x="1127" y="1892" width="93" height="40" as="geometry" />
        </mxCell>
        <mxCell id="BMEiT2I3XLS4XOjlkgCR-35" value="" style="rounded=1;whiteSpace=wrap;html=1;dashed=1;fillColor=none;" vertex="1" parent="1">
          <mxGeometry x="41" y="1050" width="600" height="542" as="geometry" />
        </mxCell>
        <mxCell id="BMEiT2I3XLS4XOjlkgCR-1" value="&lt;font face=&quot;Comic Sans MS&quot;&gt;X [B, N, I]&lt;br&gt;&lt;/font&gt;" style="rounded=1;whiteSpace=wrap;html=1;fillColor=#dae8fc;strokeColor=#6c8ebf;" vertex="1" parent="1">
          <mxGeometry x="67" y="1080" width="110" height="40" as="geometry" />
        </mxCell>
        <mxCell id="BMEiT2I3XLS4XOjlkgCR-2" value="&lt;font face=&quot;Comic Sans MS&quot;&gt;node_embedding [N, D]&lt;br&gt;&lt;/font&gt;" style="rounded=1;whiteSpace=wrap;html=1;fillColor=#d5e8d4;strokeColor=#82b366;" vertex="1" parent="1">
          <mxGeometry x="197" y="1080" width="410" height="40" as="geometry" />
        </mxCell>
        <mxCell id="BMEiT2I3XLS4XOjlkgCR-9" style="edgeStyle=orthogonalEdgeStyle;orthogonalLoop=1;jettySize=auto;html=1;entryX=0.5;entryY=0;entryDx=0;entryDy=0;curved=1;" edge="1" parent="1" source="BMEiT2I3XLS4XOjlkgCR-2" target="BMEiT2I3XLS4XOjlkgCR-8">
          <mxGeometry relative="1" as="geometry" />
        </mxCell>
        <mxCell id="BMEiT2I3XLS4XOjlkgCR-10" value="&lt;font face=&quot;Comic Sans MS&quot;&gt;supports&lt;br&gt;&lt;/font&gt;" style="rounded=1;whiteSpace=wrap;html=1;fillColor=#dae8fc;strokeColor=#6c8ebf;" vertex="1" parent="1">
          <mxGeometry x="217" y="1132" width="82.5" height="30" as="geometry" />
        </mxCell>
        <mxCell id="BMEiT2I3XLS4XOjlkgCR-11" value="&lt;font face=&quot;Comic Sans MS&quot;&gt;weight_pool&lt;br&gt;&lt;/font&gt;" style="rounded=1;whiteSpace=wrap;html=1;fillColor=#dae8fc;strokeColor=#6c8ebf;" vertex="1" parent="1">
          <mxGeometry x="437" y="1220" width="80" height="40" as="geometry" />
        </mxCell>
        <mxCell id="BMEiT2I3XLS4XOjlkgCR-12" style="edgeStyle=orthogonalEdgeStyle;orthogonalLoop=1;jettySize=auto;html=1;curved=1;" edge="1" parent="1" source="BMEiT2I3XLS4XOjlkgCR-2" target="BMEiT2I3XLS4XOjlkgCR-11">
          <mxGeometry relative="1" as="geometry" />
        </mxCell>
        <mxCell id="BMEiT2I3XLS4XOjlkgCR-13" value="&lt;font face=&quot;Comic Sans MS&quot;&gt;bias_pool&lt;br&gt;&lt;/font&gt;" style="rounded=1;whiteSpace=wrap;html=1;fillColor=#dae8fc;strokeColor=#6c8ebf;" vertex="1" parent="1">
          <mxGeometry x="527" y="1220" width="80" height="40" as="geometry" />
        </mxCell>
        <mxCell id="BMEiT2I3XLS4XOjlkgCR-14" style="edgeStyle=orthogonalEdgeStyle;orthogonalLoop=1;jettySize=auto;html=1;entryX=0.5;entryY=0;entryDx=0;entryDy=0;curved=1;" edge="1" parent="1" source="BMEiT2I3XLS4XOjlkgCR-2" target="BMEiT2I3XLS4XOjlkgCR-13">
          <mxGeometry relative="1" as="geometry">
            <Array as="points">
              <mxPoint x="402" y="1140" />
              <mxPoint x="567" y="1140" />
            </Array>
          </mxGeometry>
        </mxCell>
        <mxCell id="BMEiT2I3XLS4XOjlkgCR-15" value="&lt;font face=&quot;Comic Sans MS&quot;&gt;weight&lt;br&gt;&lt;/font&gt;" style="rounded=1;whiteSpace=wrap;html=1;fillColor=#dae8fc;strokeColor=#6c8ebf;" vertex="1" parent="1">
          <mxGeometry x="437" y="1310" width="80" height="40" as="geometry" />
        </mxCell>
        <mxCell id="BMEiT2I3XLS4XOjlkgCR-17" style="edgeStyle=orthogonalEdgeStyle;rounded=0;orthogonalLoop=1;jettySize=auto;html=1;entryX=0.5;entryY=0;entryDx=0;entryDy=0;" edge="1" parent="1" source="BMEiT2I3XLS4XOjlkgCR-11" target="BMEiT2I3XLS4XOjlkgCR-15">
          <mxGeometry relative="1" as="geometry" />
        </mxCell>
        <mxCell id="BMEiT2I3XLS4XOjlkgCR-16" value="&lt;font face=&quot;Comic Sans MS&quot;&gt;bias&lt;br&gt;&lt;/font&gt;" style="rounded=1;whiteSpace=wrap;html=1;fillColor=#dae8fc;strokeColor=#6c8ebf;" vertex="1" parent="1">
          <mxGeometry x="527" y="1310" width="80" height="40" as="geometry" />
        </mxCell>
        <mxCell id="BMEiT2I3XLS4XOjlkgCR-18" style="edgeStyle=orthogonalEdgeStyle;rounded=0;orthogonalLoop=1;jettySize=auto;html=1;entryX=0.5;entryY=0;entryDx=0;entryDy=0;" edge="1" parent="1" source="BMEiT2I3XLS4XOjlkgCR-13" target="BMEiT2I3XLS4XOjlkgCR-16">
          <mxGeometry relative="1" as="geometry" />
        </mxCell>
        <mxCell id="BMEiT2I3XLS4XOjlkgCR-20" value="&lt;font face=&quot;Comic Sans MS&quot;&gt;x_g&lt;br&gt;&lt;/font&gt;" style="rounded=1;whiteSpace=wrap;html=1;fillColor=#dae8fc;strokeColor=#6c8ebf;" vertex="1" parent="1">
          <mxGeometry x="262" y="1470" width="110" height="40" as="geometry" />
        </mxCell>
        <mxCell id="BMEiT2I3XLS4XOjlkgCR-27" style="edgeStyle=orthogonalEdgeStyle;orthogonalLoop=1;jettySize=auto;html=1;entryX=0;entryY=0.5;entryDx=0;entryDy=0;exitX=0.5;exitY=1;exitDx=0;exitDy=0;curved=1;" edge="1" parent="1" source="BMEiT2I3XLS4XOjlkgCR-1" target="BMEiT2I3XLS4XOjlkgCR-20">
          <mxGeometry relative="1" as="geometry" />
        </mxCell>
        <mxCell id="BMEiT2I3XLS4XOjlkgCR-25" style="edgeStyle=orthogonalEdgeStyle;orthogonalLoop=1;jettySize=auto;html=1;entryX=1;entryY=0.5;entryDx=0;entryDy=0;exitX=0.5;exitY=1;exitDx=0;exitDy=0;curved=1;" edge="1" parent="1" source="BMEiT2I3XLS4XOjlkgCR-15" target="BMEiT2I3XLS4XOjlkgCR-20">
          <mxGeometry relative="1" as="geometry" />
        </mxCell>
        <mxCell id="BMEiT2I3XLS4XOjlkgCR-26" style="edgeStyle=orthogonalEdgeStyle;orthogonalLoop=1;jettySize=auto;html=1;entryX=1;entryY=0.5;entryDx=0;entryDy=0;exitX=0.5;exitY=1;exitDx=0;exitDy=0;curved=1;" edge="1" parent="1" source="BMEiT2I3XLS4XOjlkgCR-16" target="BMEiT2I3XLS4XOjlkgCR-20">
          <mxGeometry relative="1" as="geometry" />
        </mxCell>
        <mxCell id="BMEiT2I3XLS4XOjlkgCR-22" style="edgeStyle=orthogonalEdgeStyle;orthogonalLoop=1;jettySize=auto;html=1;entryX=0.5;entryY=0;entryDx=0;entryDy=0;curved=1;" edge="1" parent="1" source="BMEiT2I3XLS4XOjlkgCR-8" target="BMEiT2I3XLS4XOjlkgCR-20">
          <mxGeometry relative="1" as="geometry" />
        </mxCell>
        <mxCell id="BMEiT2I3XLS4XOjlkgCR-23" value="&lt;font face=&quot;Comic Sans MS&quot;&gt;x_gconv [B, N, O]&lt;br&gt;&lt;/font&gt;" style="rounded=1;whiteSpace=wrap;html=1;fillColor=#f8cecc;strokeColor=#b85450;" vertex="1" parent="1">
          <mxGeometry x="212" y="1530" width="210" height="40" as="geometry" />
        </mxCell>
        <mxCell id="BMEiT2I3XLS4XOjlkgCR-28" style="edgeStyle=orthogonalEdgeStyle;rounded=0;orthogonalLoop=1;jettySize=auto;html=1;entryX=0.5;entryY=0;entryDx=0;entryDy=0;" edge="1" parent="1" source="BMEiT2I3XLS4XOjlkgCR-20" target="BMEiT2I3XLS4XOjlkgCR-23">
          <mxGeometry relative="1" as="geometry" />
        </mxCell>
        <mxCell id="BMEiT2I3XLS4XOjlkgCR-3" value="&lt;font face=&quot;Comic Sans MS&quot;&gt;node_embedding eye&lt;br&gt;&lt;/font&gt;" style="rounded=1;whiteSpace=wrap;html=1;fillColor=#f8cecc;strokeColor=#b85450;" vertex="1" parent="1">
          <mxGeometry x="220" y="1192" width="190" height="40" as="geometry" />
        </mxCell>
        <mxCell id="BMEiT2I3XLS4XOjlkgCR-4" value="&lt;font face=&quot;Comic Sans MS&quot;&gt;node_embedding 自相关&lt;br&gt;&lt;/font&gt;" style="rounded=1;whiteSpace=wrap;html=1;fillColor=#f8cecc;strokeColor=#b85450;" vertex="1" parent="1">
          <mxGeometry x="220" y="1242" width="190" height="40" as="geometry" />
        </mxCell>
        <mxCell id="BMEiT2I3XLS4XOjlkgCR-5" value="&lt;font face=&quot;Comic Sans MS&quot;&gt;node_embedding mm(-1)-(-2)&lt;br&gt;&lt;/font&gt;" style="rounded=1;whiteSpace=wrap;html=1;fillColor=#ffe6cc;strokeColor=#d79b00;" vertex="1" parent="1">
          <mxGeometry x="220" y="1342" width="190" height="40" as="geometry" />
        </mxCell>
        <mxCell id="BMEiT2I3XLS4XOjlkgCR-6" value="&lt;font face=&quot;Comic Sans MS&quot;&gt;node_embedding mm(-1)-(-2) ...&lt;br&gt;&lt;/font&gt;" style="rounded=1;whiteSpace=wrap;html=1;fillColor=#ffe6cc;strokeColor=#d79b00;" vertex="1" parent="1">
          <mxGeometry x="220" y="1292" width="190" height="40" as="geometry" />
        </mxCell>
        <mxCell id="BMEiT2I3XLS4XOjlkgCR-8" value="" style="rounded=1;whiteSpace=wrap;html=1;dashed=1;fillColor=none;" vertex="1" parent="1">
          <mxGeometry x="204" y="1172" width="226" height="230" as="geometry" />
        </mxCell>
        <mxCell id="BMEiT2I3XLS4XOjlkgCR-36" value="&lt;font style=&quot;font-size: 18px;&quot; face=&quot;Comic Sans MS&quot;&gt;AVWGCN&lt;/font&gt;" style="rounded=1;whiteSpace=wrap;html=1;fillColor=#1ba1e2;fontColor=#ffffff;strokeColor=#006EAF;" vertex="1" parent="1">
          <mxGeometry x="30" y="1028" width="220" height="40" as="geometry" />
        </mxCell>
        <mxCell id="BMEiT2I3XLS4XOjlkgCR-101" value="&lt;font style=&quot;font-size: 18px;&quot; face=&quot;Comic Sans MS&quot;&gt;AGCRNCell&lt;/font&gt;" style="rounded=1;whiteSpace=wrap;html=1;fillColor=#1ba1e2;fontColor=#ffffff;strokeColor=#006EAF;" vertex="1" parent="1">
          <mxGeometry x="907" y="1390" width="220" height="40" as="geometry" />
        </mxCell>
        <mxCell id="BMEiT2I3XLS4XOjlkgCR-103" value="&lt;font face=&quot;Comic Sans MS&quot;&gt;x [B, T, N, I]&lt;/font&gt;" style="rounded=1;whiteSpace=wrap;html=1;fillColor=#dae8fc;strokeColor=#6c8ebf;" vertex="1" parent="1">
          <mxGeometry x="1042.5" y="1010" width="94" height="40" as="geometry" />
        </mxCell>
        <mxCell id="BMEiT2I3XLS4XOjlkgCR-111" style="edgeStyle=orthogonalEdgeStyle;rounded=0;orthogonalLoop=1;jettySize=auto;html=1;entryX=0.5;entryY=0;entryDx=0;entryDy=0;" edge="1" parent="1" source="BMEiT2I3XLS4XOjlkgCR-104" target="BMEiT2I3XLS4XOjlkgCR-106">
          <mxGeometry relative="1" as="geometry" />
        </mxCell>
        <mxCell id="BMEiT2I3XLS4XOjlkgCR-104" value="&lt;font face=&quot;Comic Sans MS&quot;&gt;init_state [num_layers, B, N, O]&lt;/font&gt;" style="rounded=1;whiteSpace=wrap;html=1;fillColor=#dae8fc;strokeColor=#6c8ebf;" vertex="1" parent="1">
          <mxGeometry x="1146.5" y="1010" width="190" height="40" as="geometry" />
        </mxCell>
        <mxCell id="BMEiT2I3XLS4XOjlkgCR-105" value="&lt;font face=&quot;Comic Sans MS&quot;&gt;node_embedding [N, D]&lt;/font&gt;" style="rounded=1;whiteSpace=wrap;html=1;fillColor=#dae8fc;strokeColor=#6c8ebf;" vertex="1" parent="1">
          <mxGeometry x="1346.5" y="1010" width="140" height="40" as="geometry" />
        </mxCell>
        <mxCell id="BMEiT2I3XLS4XOjlkgCR-112" value="&lt;font face=&quot;Comic Sans MS&quot;&gt;current_inputs [B, T, N, O]&lt;/font&gt;" style="rounded=1;whiteSpace=wrap;html=1;fillColor=#dae8fc;strokeColor=#6c8ebf;" vertex="1" parent="1">
          <mxGeometry x="996.5" y="1260" width="232" height="40" as="geometry" />
        </mxCell>
        <mxCell id="BMEiT2I3XLS4XOjlkgCR-113" value="&lt;font face=&quot;Comic Sans MS&quot;&gt;output_hidden [num_layers, B, N, O]&lt;/font&gt;" style="rounded=1;whiteSpace=wrap;html=1;fillColor=#dae8fc;strokeColor=#6c8ebf;" vertex="1" parent="1">
          <mxGeometry x="1263.5" y="1260" width="240" height="40" as="geometry" />
        </mxCell>
        <mxCell id="BMEiT2I3XLS4XOjlkgCR-107" value="&lt;font style=&quot;font-size: 11px;&quot; face=&quot;Comic Sans MS&quot;&gt;num_laysers × T&lt;/font&gt;" style="rounded=1;whiteSpace=wrap;html=1;fillColor=#1ba1e2;fontColor=#ffffff;strokeColor=#006EAF;" vertex="1" parent="1">
          <mxGeometry x="1110.5" y="1068" width="96" height="20" as="geometry" />
        </mxCell>
        <mxCell id="BMEiT2I3XLS4XOjlkgCR-116" value="" style="group" vertex="1" connectable="0" parent="1">
          <mxGeometry x="1133.5" y="1088" width="216" height="130" as="geometry" />
        </mxCell>
        <mxCell id="BMEiT2I3XLS4XOjlkgCR-106" value="" style="rounded=1;whiteSpace=wrap;html=1;fillColor=none;strokeColor=#6c8ebf;dashed=1;" vertex="1" parent="BMEiT2I3XLS4XOjlkgCR-116">
          <mxGeometry width="216" height="130" as="geometry" />
        </mxCell>
        <mxCell id="BMEiT2I3XLS4XOjlkgCR-108" value="&lt;font face=&quot;Comic Sans MS&quot;&gt;dcrnn_cells (AGCRNCell)&lt;/font&gt;" style="rounded=1;whiteSpace=wrap;html=1;fillColor=#f8cecc;strokeColor=#b85450;" vertex="1" parent="BMEiT2I3XLS4XOjlkgCR-116">
          <mxGeometry x="17" y="10" width="180" height="30" as="geometry" />
        </mxCell>
        <mxCell id="BMEiT2I3XLS4XOjlkgCR-109" value="&lt;font face=&quot;Comic Sans MS&quot;&gt;dcrnn_cells (AGCRNCell)&lt;/font&gt;" style="rounded=1;whiteSpace=wrap;html=1;fillColor=#f8cecc;strokeColor=#b85450;" vertex="1" parent="BMEiT2I3XLS4XOjlkgCR-116">
          <mxGeometry x="18" y="50" width="180" height="30" as="geometry" />
        </mxCell>
        <mxCell id="BMEiT2I3XLS4XOjlkgCR-110" value="&lt;font face=&quot;Comic Sans MS&quot;&gt;dcrnn_cells (AGCRNCell)&lt;/font&gt;" style="rounded=1;whiteSpace=wrap;html=1;fillColor=#f8cecc;strokeColor=#b85450;" vertex="1" parent="BMEiT2I3XLS4XOjlkgCR-116">
          <mxGeometry x="18" y="90" width="180" height="30" as="geometry" />
        </mxCell>
        <mxCell id="BMEiT2I3XLS4XOjlkgCR-117" style="edgeStyle=orthogonalEdgeStyle;orthogonalLoop=1;jettySize=auto;html=1;entryX=0.5;entryY=0;entryDx=0;entryDy=0;curved=1;" edge="1" parent="1" source="BMEiT2I3XLS4XOjlkgCR-106" target="BMEiT2I3XLS4XOjlkgCR-112">
          <mxGeometry relative="1" as="geometry" />
        </mxCell>
        <mxCell id="BMEiT2I3XLS4XOjlkgCR-119" style="edgeStyle=orthogonalEdgeStyle;orthogonalLoop=1;jettySize=auto;html=1;entryX=0.5;entryY=0;entryDx=0;entryDy=0;curved=1;" edge="1" parent="1" source="BMEiT2I3XLS4XOjlkgCR-106" target="BMEiT2I3XLS4XOjlkgCR-113">
          <mxGeometry relative="1" as="geometry" />
        </mxCell>
        <mxCell id="BMEiT2I3XLS4XOjlkgCR-122" value="&lt;font style=&quot;font-size: 18px;&quot; face=&quot;Comic Sans MS&quot;&gt;AVWDCRNN&lt;/font&gt;" style="rounded=1;whiteSpace=wrap;html=1;fillColor=#1ba1e2;fontColor=#ffffff;strokeColor=#006EAF;" vertex="1" parent="1">
          <mxGeometry x="913.5" y="960" width="220" height="40" as="geometry" />
        </mxCell>
        <mxCell id="BMEiT2I3XLS4XOjlkgCR-125" style="edgeStyle=orthogonalEdgeStyle;rounded=0;orthogonalLoop=1;jettySize=auto;html=1;entryX=0.5;entryY=0;entryDx=0;entryDy=0;" edge="1" parent="1" source="BMEiT2I3XLS4XOjlkgCR-123" target="BMEiT2I3XLS4XOjlkgCR-124">
          <mxGeometry relative="1" as="geometry" />
        </mxCell>
        <mxCell id="BMEiT2I3XLS4XOjlkgCR-123" value="&lt;font face=&quot;Comic Sans MS&quot;&gt;source [B, T, N, I]&lt;/font&gt;" style="rounded=1;whiteSpace=wrap;html=1;fillColor=#dae8fc;strokeColor=#6c8ebf;" vertex="1" parent="1">
          <mxGeometry x="700" y="1140" width="170" height="40" as="geometry" />
        </mxCell>
        <mxCell id="BMEiT2I3XLS4XOjlkgCR-127" style="edgeStyle=orthogonalEdgeStyle;rounded=0;orthogonalLoop=1;jettySize=auto;html=1;entryX=0.5;entryY=0;entryDx=0;entryDy=0;" edge="1" parent="1" source="BMEiT2I3XLS4XOjlkgCR-124" target="BMEiT2I3XLS4XOjlkgCR-126">
          <mxGeometry relative="1" as="geometry" />
        </mxCell>
        <mxCell id="BMEiT2I3XLS4XOjlkgCR-124" value="&lt;font face=&quot;Comic Sans MS&quot;&gt;encoder (AVWDCRNN)&lt;/font&gt;" style="rounded=1;whiteSpace=wrap;html=1;fillColor=#d5e8d4;strokeColor=#82b366;" vertex="1" parent="1">
          <mxGeometry x="700" y="1208" width="170" height="40" as="geometry" />
        </mxCell>
        <mxCell id="BMEiT2I3XLS4XOjlkgCR-130" style="edgeStyle=orthogonalEdgeStyle;rounded=0;orthogonalLoop=1;jettySize=auto;html=1;entryX=0.5;entryY=0;entryDx=0;entryDy=0;" edge="1" parent="1" source="BMEiT2I3XLS4XOjlkgCR-126" target="BMEiT2I3XLS4XOjlkgCR-128">
          <mxGeometry relative="1" as="geometry" />
        </mxCell>
        <mxCell id="BMEiT2I3XLS4XOjlkgCR-126" value="&lt;font face=&quot;Comic Sans MS&quot;&gt;cnn&lt;/font&gt;" style="rounded=1;whiteSpace=wrap;html=1;fillColor=#f8cecc;strokeColor=#b85450;" vertex="1" parent="1">
          <mxGeometry x="700" y="1280" width="170" height="40" as="geometry" />
        </mxCell>
        <mxCell id="BMEiT2I3XLS4XOjlkgCR-132" style="edgeStyle=orthogonalEdgeStyle;rounded=0;orthogonalLoop=1;jettySize=auto;html=1;entryX=0.5;entryY=0;entryDx=0;entryDy=0;" edge="1" parent="1" source="BMEiT2I3XLS4XOjlkgCR-128" target="BMEiT2I3XLS4XOjlkgCR-131">
          <mxGeometry relative="1" as="geometry" />
        </mxCell>
        <mxCell id="BMEiT2I3XLS4XOjlkgCR-128" value="&lt;font face=&quot;Comic Sans MS&quot;&gt;cnn.reshape&lt;/font&gt;" style="rounded=1;whiteSpace=wrap;html=1;fillColor=#dae8fc;strokeColor=#6c8ebf;" vertex="1" parent="1">
          <mxGeometry x="700" y="1350" width="170" height="40" as="geometry" />
        </mxCell>
        <mxCell id="BMEiT2I3XLS4XOjlkgCR-131" value="&lt;font face=&quot;Comic Sans MS&quot;&gt;output [B, T, N, O]&lt;/font&gt;" style="rounded=1;whiteSpace=wrap;html=1;fillColor=#cdeb8b;strokeColor=#36393d;" vertex="1" parent="1">
          <mxGeometry x="700" y="1420" width="170" height="40" as="geometry" />
        </mxCell>
        <mxCell id="BMEiT2I3XLS4XOjlkgCR-133" value="" style="endArrow=classic;html=1;rounded=0;exitX=1;exitY=0;exitDx=0;exitDy=0;entryX=0.25;entryY=1;entryDx=0;entryDy=0;" edge="1" parent="1" source="BMEiT2I3XLS4XOjlkgCR-124" target="BMEiT2I3XLS4XOjlkgCR-122">
          <mxGeometry width="50" height="50" relative="1" as="geometry">
            <mxPoint x="960" y="1260" as="sourcePoint" />
            <mxPoint x="990" y="1040" as="targetPoint" />
          </mxGeometry>
        </mxCell>
        <mxCell id="BMEiT2I3XLS4XOjlkgCR-134" value="" style="endArrow=classic;html=1;rounded=0;exitX=1;exitY=1;exitDx=0;exitDy=0;entryX=0;entryY=1;entryDx=0;entryDy=0;" edge="1" parent="1" source="BMEiT2I3XLS4XOjlkgCR-124" target="BMEiT2I3XLS4XOjlkgCR-121">
          <mxGeometry width="50" height="50" relative="1" as="geometry">
            <mxPoint x="960" y="1260" as="sourcePoint" />
            <mxPoint x="1010" y="1210" as="targetPoint" />
          </mxGeometry>
        </mxCell>
        <mxCell id="BMEiT2I3XLS4XOjlkgCR-136" value="" style="endArrow=classic;html=1;rounded=0;exitX=0;exitY=1;exitDx=0;exitDy=0;entryX=0.5;entryY=0;entryDx=0;entryDy=0;" edge="1" parent="1" source="BMEiT2I3XLS4XOjlkgCR-110" target="BMEiT2I3XLS4XOjlkgCR-101">
          <mxGeometry width="50" height="50" relative="1" as="geometry">
            <mxPoint x="790" y="1040" as="sourcePoint" />
            <mxPoint x="840" y="990" as="targetPoint" />
          </mxGeometry>
        </mxCell>
        <mxCell id="BMEiT2I3XLS4XOjlkgCR-137" value="" style="endArrow=classic;html=1;rounded=0;exitX=1;exitY=1;exitDx=0;exitDy=0;entryX=0.915;entryY=0.006;entryDx=0;entryDy=0;entryPerimeter=0;" edge="1" parent="1" source="BMEiT2I3XLS4XOjlkgCR-110" target="BMEiT2I3XLS4XOjlkgCR-100">
          <mxGeometry width="50" height="50" relative="1" as="geometry">
            <mxPoint x="1533.5" y="1380" as="sourcePoint" />
            <mxPoint x="1583.5" y="1330" as="targetPoint" />
          </mxGeometry>
        </mxCell>
        <mxCell id="BMEiT2I3XLS4XOjlkgCR-139" value="" style="endArrow=classic;html=1;rounded=0;exitX=0;exitY=0;exitDx=0;exitDy=0;entryX=1.011;entryY=0.794;entryDx=0;entryDy=0;entryPerimeter=0;" edge="1" parent="1" source="BMEiT2I3XLS4XOjlkgCR-62" target="BMEiT2I3XLS4XOjlkgCR-35">
          <mxGeometry width="50" height="50" relative="1" as="geometry">
            <mxPoint x="630" y="2000" as="sourcePoint" />
            <mxPoint x="680" y="1950" as="targetPoint" />
          </mxGeometry>
        </mxCell>
        <mxCell id="BMEiT2I3XLS4XOjlkgCR-140" value="" style="endArrow=classic;html=1;rounded=0;exitX=0;exitY=1;exitDx=0;exitDy=0;entryX=0.084;entryY=0.997;entryDx=0;entryDy=0;entryPerimeter=0;" edge="1" parent="1" source="BMEiT2I3XLS4XOjlkgCR-62" target="BMEiT2I3XLS4XOjlkgCR-35">
          <mxGeometry width="50" height="50" relative="1" as="geometry">
            <mxPoint x="550" y="1690" as="sourcePoint" />
            <mxPoint x="600" y="1640" as="targetPoint" />
          </mxGeometry>
        </mxCell>
      </root>
    </mxGraphModel>
  </diagram>
</mxfile>
